<svg xmlns="http://www.w3.org/2000/svg" viewBox="0 0 35.17 74.95"><defs><style>.cls-1{fill:#ff8d57;}</style></defs><title>Asset 5divider</title><g id="Layer_2" data-name="Layer 2"><g id="Layer_1-2" data-name="Layer 1"><path class="cls-1" d="M33.43,49.92a27.38,27.38,0,0,1-2.83-12v-.69a29.24,29.24,0,0,1,3-12.29A17.58,17.58,0,1,0,0,17.59a17.42,17.42,0,0,0,1.77,7.66,27.28,27.28,0,0,1,2.8,12v1.27A28.81,28.81,0,0,1,1.82,50.35,17.28,17.28,0,0,0,.41,59.61,17.44,17.44,0,0,0,35.17,57.5,17.33,17.33,0,0,0,33.43,49.92ZM17.59,63.73a6.23,6.23,0,1,1,6.22-6.23A6.23,6.23,0,0,1,17.59,63.73Zm0-39.92a6.23,6.23,0,1,1,6.22-6.22A6.23,6.23,0,0,1,17.59,23.81Z"/></g></g></svg>