<svg xmlns="http://www.w3.org/2000/svg" viewBox="0 0 568.6 114.64"><defs><style>.cls-1{fill:#ff8d57;}.cls-2{fill:#fff;}</style></defs><title>Asset 4freshbike logo</title><g id="Layer_2" data-name="Layer 2"><g id="Layer_1-2" data-name="Layer 1"><path class="cls-1" d="M0,13.27H43.35v18H23V56.06H41.54v18H23v39.47H0Z"/><path class="cls-1" d="M52.76,42.91H72.42V50h.28c2.77-6.51,6.09-8.17,14-8.17,7.34,0,11.91,1.8,12,10.52V71.43H81.56V60.91c0-2.22-1.94-2.77-4.15-2.77s-4.16.83-4.16,3.74v51.65H52.76Z"/><path class="cls-1" d="M105.24,64.23c0-19,9.41-22.43,27-22.43,22.43,0,27,8.45,27,19.52V83.2H126.56V95.11c0,3.74.83,4.85,6.1,4.85,4,0,5.81-.83,5.81-5V91.65h20.78v4c0,14.82-6.24,19-27,19-17.59,0-27-3.46-27-22.43Zm21.32,6h11.36V59.8c0-2.91-1-4.15-5.68-4.15s-5.68,1.24-5.68,4.15Z"/><path class="cls-1" d="M169.62,91.65h18.84v1.94c0,5.26,1.11,6.37,4.85,6.37s5.26-1.11,4.84-6.37c-.41-6-1-6.23-11.08-7.75-14.4-2.08-17.86-6.79-17.86-20.5,0-20.63,5.26-23.13,24.1-23.54,17.86-.42,23.68,3.88,23.68,14V64H199V60.63c0-3.18-1.38-5-4.57-5-3.87,0-4.71,1.52-4.71,6.37s.84,5.81,9.28,7.06c16.2,2.49,19.39,4.85,19.67,20.36.41,22-7.62,25.2-24.24,25.2-18.28,0-24.79-3.19-24.79-16.76Z"/><path class="cls-1" d="M230,13.27h20.49V50.66h.28c2.91-6.23,7.75-8.86,14.4-8.86,9,0,16.07,4,16.07,16.2v55.53h-20.5V63c0-3.05-1.38-4.85-5.26-4.85-3.6,0-5,1.8-5,4.85v50.54H230Z"/><path class="cls-1" d="M298.06,13H332c19.94,0,25.07,4.16,25.07,24.24,0,13.15-1,21.46-15,23.81v.28c14.26,1.11,16.62,11.22,16.62,23.4,0,21-4.85,28.53-23,28.53H298.06Zm23,40.85h5.54c6.65,0,7.48-2.21,7.48-8.86V38.89c0-6.51-.83-8.73-7.48-8.73h-5.54Zm0,42.24h6.79c5.67,0,7.06-1.66,7.06-9.28V79.32c0-7.47-1.66-9.14-7.06-9.14h-6.79Z"/><path class="cls-1" d="M414.32,13h20.49V68.52h.28l9.28-25.89h20.22l-10.53,31,13.85,39.6H446l-10.94-34.9h-.28v34.9H414.32Z"/><path class="cls-1" d="M471.92,64c0-19,9.42-22.43,27-22.43,22.43,0,27,8.45,27,19.52V82.92H493.25V94.83c0,3.74.83,4.85,6.09,4.85,4,0,5.82-.83,5.82-5V91.37h20.77v4c0,14.82-6.23,19-27,19-17.59,0-27-3.46-27-22.43Zm21.33,6H504.6V59.52c0-2.91-1-4.15-5.67-4.15s-5.68,1.24-5.68,4.15Z"/><path class="cls-1" d="M401.49,89.38a27.52,27.52,0,0,1-2.83-12v-.69a29.39,29.39,0,0,1,3-12.29,17.59,17.59,0,1,0-31.79.32,27.29,27.29,0,0,1,2.81,12v1.27a29,29,0,0,1-2.75,11.87A17.44,17.44,0,1,0,403.24,97,17.2,17.2,0,0,0,401.49,89.38Zm-15.84,13.81A6.23,6.23,0,1,1,391.88,97,6.23,6.23,0,0,1,385.65,103.19Zm0-39.92a6.23,6.23,0,1,1,6.23-6.22A6.23,6.23,0,0,1,385.65,63.27Z"/><path class="cls-1" d="M394.39,0H376.91l-8.75,15.14,8.75,15.15h17.48l8.75-15.15Zm-8.74,21.37a6.23,6.23,0,1,1,6.23-6.23A6.23,6.23,0,0,1,385.65,21.37Z"/><path class="cls-2" d="M548.6,7.76a19.28,19.28,0,0,1,14.13,5.89,19.4,19.4,0,0,1,5.87,14.2,19.45,19.45,0,0,1-5.87,14.22,20,20,0,0,1-28.36,0,19.36,19.36,0,0,1-5.89-14.23,19.35,19.35,0,0,1,5.89-14.2A19.42,19.42,0,0,1,548.6,7.76Zm0,2.08a16.85,16.85,0,0,0-12.47,5.27,17.55,17.55,0,0,0-5.17,12.74,17.59,17.59,0,0,0,5.17,12.76,17.32,17.32,0,0,0,24.9,0,17.62,17.62,0,0,0,5.15-12.76A17.56,17.56,0,0,0,561,15.11,16.73,16.73,0,0,0,548.57,9.84Zm-9,29.07V16.42h11.08q6.87,0,6.87,6.58,0,4.8-3.09,5.83,2.77,1,2.77,4.33v5.75h-2.94V33.74c0-2.4-1.1-3.61-3.29-3.61h-8.46v8.78Zm2.94-11.43h7.27c3.2,0,4.79-1.29,4.79-3.87,0-1.9-.24-3.14-.72-3.69s-1.54-.84-3.17-.84h-8.17Z"/></g></g></svg>