<svg xmlns="http://www.w3.org/2000/svg" viewBox="0 0 86 86"><title>Asset 8insta</title><g id="Layer_2" data-name="Layer 2"><g id="Layer_1-2" data-name="Layer 1"><path d="M72.6,0a12.93,12.93,0,0,1,9.5,3.9A12.93,12.93,0,0,1,86,13.4V28H64.2A24.66,24.66,0,0,0,43,17Q29.2,17,21.8,28H0V13.4A12.93,12.93,0,0,1,3.9,3.9,12.93,12.93,0,0,1,13.4,0ZM69,43a20.56,20.56,0,0,0-.6-5H86V72.4A13.27,13.27,0,0,1,82.1,82a12.76,12.76,0,0,1-9.5,4H13.4a12.76,12.76,0,0,1-9.5-4A13.27,13.27,0,0,1,0,72.4V38H17.4a42.19,42.19,0,0,0-.4,5,25.14,25.14,0,0,0,7.6,18.3A24.81,24.81,0,0,0,42.9,69a25.12,25.12,0,0,0,18.4-7.7A25,25,0,0,0,69,43ZM59,43A16,16,0,0,1,43,59,16,16,0,0,1,27,42.9a15.21,15.21,0,0,1,4.7-11.3A15.56,15.56,0,0,1,43,27a15.56,15.56,0,0,1,11.3,4.6A15.34,15.34,0,0,1,59,43ZM79,16.6V9.4A2.12,2.12,0,0,0,76.6,7H69.4A2.12,2.12,0,0,0,67,9.4v7.2a2.43,2.43,0,0,0,.7,1.6,2.19,2.19,0,0,0,1.7.8h7.2A2.12,2.12,0,0,0,79,16.6Z"/></g></g></svg>