<svg xmlns="http://www.w3.org/2000/svg" viewBox="0 0 93.8 67.6"><title>Asset 6mail</title><g id="Layer_2" fill="#fff" data-name="Layer 2"><g id="Layer_1-2" data-name="Layer 1"><path d="M83.4,0a10.06,10.06,0,0,1,7.4,3,10.06,10.06,0,0,1,3,7.4V57.2a10.27,10.27,0,0,1-3,7.4,9.55,9.55,0,0,1-7.4,3h-73a10.06,10.06,0,0,1-7.4-3,10.06,10.06,0,0,1-3-7.4V10.4A10.06,10.06,0,0,1,3,3a10.06,10.06,0,0,1,7.4-3Zm0,10.4h-73v1.1l34.2,30a3.62,3.62,0,0,0,2.3.7,3.21,3.21,0,0,0,2.2-.7l34.3-30Zm-73,43.2L29.1,34.7,10.4,18.4Zm30.9-8.2-8.2-7.2-19,19H79.6l-19-19-8.1,7.2a8.84,8.84,0,0,1-11.2,0ZM64.6,34.7,83.4,53.5V18.4Z"/></g></g></svg>
